<?xml version="1.0" standalone="no"?>
<!DOCTYPE svg PUBLIC "-//W3C//DTD SVG 20010904//EN"
 "http://www.w3.org/TR/2001/REC-SVG-20010904/DTD/svg10.dtd">
<svg version="1.0" xmlns="http://www.w3.org/2000/svg"
 width="196.000000pt" height="40.000000pt" viewBox="0 0 196.000000 40.000000"
 preserveAspectRatio="xMidYMid meet">
<metadata>
Created by potrace 1.16, written by Peter Selinger 2001-2019
</metadata>
<g transform="translate(0.000000,40.000000) scale(0.039200,-0.008000)"
fill="#000000" stroke="none">
<path d="M3124 2821 c-39 -24 -64 -84 -64 -156 0 -48 -2 -55 -20 -55 -17 0
-20 -7 -20 -40 0 -33 3 -40 20 -40 19 0 20 -7 20 -235 l0 -235 55 0 55 0 0
235 0 235 60 0 60 0 0 40 c0 38 -1 40 -32 40 l-32 0 28 29 c32 34 55 93 48
127 -2 13 -18 35 -34 49 -37 31 -99 33 -144 6z"/>
<path d="M1210 2445 l0 -385 60 0 60 0 0 165 0 165 40 0 40 0 0 50 0 50 -40 0
-40 0 0 120 0 120 60 0 60 0 0 50 0 50 -120 0 -120 0 0 -385z"/>
<path d="M1500 2445 l0 -385 50 0 50 0 0 385 0 385 -50 0 -50 0 0 -385z"/>
<path d="M3330 2445 l0 -385 55 0 55 0 0 385 0 385 -55 0 -55 0 0 -385z"/>
<path d="M1755 2648 c-63 -37 -90 -123 -89 -288 0 -70 6 -145 13 -170 32 -113
101 -161 177 -124 80 40 109 131 101 324 -6 142 -18 189 -63 237 -26 28 -38
33 -75 33 -24 0 -53 -6 -64 -12z m82 -95 c5 -16 8 -110 8 -210 0 -160 -2 -184
-17 -200 -14 -13 -21 -14 -29 -6 -25 25 -33 282 -13 411 6 42 40 45 51 5z"/>
<path d="M2175 2628 c-15 -18 -32 -45 -37 -60 -6 -16 -16 -28 -24 -28 -15 0
-12 25 7 78 5 13 9 25 9 28 0 2 -25 4 -55 4 l-55 0 0 -295 0 -295 55 0 55 0 0
233 c0 180 3 237 13 252 21 28 37 9 37 -46 l0 -49 49 0 c57 0 61 7 61 105 0
73 -18 105 -60 105 -20 0 -36 -10 -55 -32z"/>
<path d="M2495 2635 c-13 -14 -31 -41 -40 -60 -21 -45 -40 -46 -30 -2 4 17 9
42 12 55 5 21 2 22 -46 22 l-51 0 0 -295 0 -295 50 0 50 0 0 225 c0 185 3 231
16 256 9 19 21 29 32 27 15 -3 17 -28 20 -256 l2 -252 56 0 55 0 -3 273 c-3
241 -5 276 -21 300 -23 36 -69 37 -102 2z"/>
<path d="M2745 2626 c-47 -50 -60 -109 -60 -271 0 -110 4 -151 18 -192 45
-130 175 -147 235 -31 34 65 49 204 35 317 -19 145 -65 211 -151 211 -38 0
-49 -5 -77 -34z m110 -77 c4 -18 7 -107 7 -198 -1 -198 -14 -251 -53 -204 -11
12 -14 60 -14 207 0 105 3 199 7 209 13 30 46 21 53 -14z"/>
<path d="M3565 2626 c-47 -50 -60 -109 -60 -271 0 -110 4 -151 18 -192 45
-130 175 -147 235 -31 34 65 49 204 35 317 -19 145 -65 211 -151 211 -38 0
-49 -5 -77 -34z m110 -77 c4 -18 7 -107 7 -198 -1 -198 -14 -251 -53 -204 -11
12 -14 60 -14 207 0 105 3 199 7 209 13 30 46 21 53 -14z"/>
</g>
</svg>
